# xmcd CD database file
#
# Track frame offsets:
#	182
#	11012
#	25482
#	39202
#	56887
#	70367
#	85615
#	100502
#	111892
#	124842
#	137775
#	153172
#	171275
#	179562
#	199240
#
# Disc length: 2809 seconds
#
# Revision: 1
# Processed by: cddbd v1.5.2PL0 Copyright (c) Steve Scherf et al.
# Submitted via: CDex 1.70beta2
#
DISCID=cb0af70f
DTITLE=Louis Armstrong - Greatest Hits
DYEAR=1900
DGENRE=
TTITLE0=Mame
TTITLE1=When The Saints Go Marching In
TTITLE2=Ain't Misbehavin
TTITLE3=Cabaret
TTITLE4=A Kiss To Build A Dream On
TTITLE5=Please Don't Talk About Me When I'm Gone
TTITLE6=Blueberry Hill
TTITLE7=Hello Dolly
TTITLE8=St. Louis Blues
TTITLE9=That's My Desire
TTITLE10=Mack The Knife
TTITLE11=Back Ole Town Blues
TTITLE12=Stompin' At The Savoy
TTITLE13=Indiana
TTITLE14=Tiger Rag
EXTD=
EXTT0=
EXTT1=
EXTT2=
EXTT3=
EXTT4=
EXTT5=
EXTT6=
EXTT7=
EXTT8=
EXTT9=
EXTT10=
EXTT11=
EXTT12=
EXTT13=
EXTT14=
PLAYORDER=
